{"title":"WWE.Backlash.2017.05.21.HDTV.XviD-FICEK9","magnet":"magnet:?xt=urn:btih:055a5a02ad83574de498cc0cc2b9100c6ea9ee5c&dn=WWE.Backlash.2017.05.21.HDTV.XviD-FICEK9&tr=udp%3A%2F%2Ftracker.leechers-paradise.org%3A6969&tr=udp%3A%2F%2Fzer0day.ch%3A1337&tr=udp%3A%2F%2Fopen.demonii.com%3A1337&tr=udp%3A%2F%2Ftracker.coppersurfer.tk%3A6969&tr=udp%3A%2F%2Fexodus.desync.com%3A6969","uploader":"FICEK9","categoryP":"video","categoryS":"tv_shows","size":"1564141666","seeders":"0","leechers":"0","description":"\r\n   General\r\n      Complete name : WWE.Backlash.2017.05.21.HDTV.XviD-FICEK9.avi\r\n      Format : AVI\r\n      Format/Info : Audio Video Interleave\r\n      Format profile : OpenDML\r\n      File size : 1.46 GiB\r\n      Duration : 2 h 50 min\r\n      Overall bit rate mode : Variable\r\n      Overall bit rate : 1 226 kb/s\r\n      Writing application : Lavf57.41.100\r\n   Video #0\r\n      ID : 0\r\n      Format : xvid\r\n      Codec ID : xvid\r\n      Duration : 2 h 50 min\r\n      Bit rate : 1 103 kb/s\r\n      Width : 624 pixels\r\n      Height : 352 pixels\r\n      Display aspect ratio : 16:9\r\n      Frame rate : 29.970 FPS\r\n      Scan type : Progressive\r\n      Bits/(Pixel*Frame) : 0.168\r\n      Stream size : 1.31 GiB (90%)\r\n   Audio #1\r\n      ID : 1\r\n      Format : MPEG Audio\r\n      Format version : Version 1\r\n      Format profile : Layer 3\r\n      Mode : Joint stereo\r\n      Mode extension : MS Stereo\r\n      Codec ID : 55\r\n      Codec ID/Hint : MP3\r\n      Duration : 2 h 50 min\r\n      Bit rate mode : Variable\r\n      Bit rate : 108 kb/s\r\n      Channel(s) : 2 channels\r\n      Sampling rate : 48.0 kHz\r\n      Compression mode : Lossy\r\n      Stream size : 131 MiB (9%)\r\n      Alignment : Aligned on interleaves\r\n      Interleave, duration : 24  ms (0.72 video frame)\r\n      Writing library : LAME3.99.5&#x15E;&#x15E;&#x15E;&#x15E;&#x15E;&#x15E;&#x15E;&#x15E;&#x15E;&#x15E;","last_updated":"2017-07-09T12:00:33.573Z","parsed":{"xt":"urn:btih:055a5a02ad83574de498cc0cc2b9100c6ea9ee5c","dn":"WWE.Backlash.2017.05.21.HDTV.XviD-FICEK9","tr":["udp://exodus.desync.com:6969","udp://open.demonii.com:1337","udp://tracker.coppersurfer.tk:6969","udp://tracker.leechers-paradise.org:6969","udp://zer0day.ch:1337"],"infoHash":"055a5a02ad83574de498cc0cc2b9100c6ea9ee5c","infoHashBuffer":{"type":"Buffer","data":[5,90,90,2,173,131,87,77,228,152,204,12,194,185,16,12,110,169,238,92]},"name":"WWE.Backlash.2017.05.21.HDTV.XviD-FICEK9","announce":["udp://exodus.desync.com:6969","udp://open.demonii.com:1337","udp://tracker.coppersurfer.tk:6969","udp://tracker.leechers-paradise.org:6969","udp://zer0day.ch:1337"],"urlList":[]}}